<svg width="500" height="250" viewBox="0 0 500 250" fill="none" xmlns="http://www.w3.org/2000/svg">
<rect width="500" height="250" fill="url(#paint0_linear_2132_143)"/>
<path opacity="0.25" d="M250.039 195.68C304.865 195.68 349.309 185.331 349.309 172.565C349.309 159.799 304.865 149.45 250.039 149.45C195.214 149.45 150.77 159.799 150.77 172.565C150.77 185.331 195.214 195.68 250.039 195.68Z" fill="#042030"/>
<path d="M327.784 67.1846L250.039 93.7705L172.216 67.1846L135 121.303L250.039 160.669L365 121.303L327.784 67.1846Z" fill="#25D28C"/>
<path opacity="0.45" d="M148.562 119.094L243.968 155.62L211.167 123.118C211.167 123.118 157.314 110.101 148.562 119.094Z" fill="#102D21"/>
<path opacity="0.45" d="M351.517 119.094L256.111 155.62L288.912 123.118C288.833 123.118 342.686 110.101 351.517 119.094Z" fill="#102D21"/>
<path d="M250.039 160.669L135 121.303V126.431L250.039 165.797L365 126.431V121.303L250.039 160.669Z" fill="#25D28C"/>
<path d="M188.774 184.336L202.1 149.388L244.993 164.061L188.774 184.336Z" fill="#25D28C"/>
<path opacity="0.45" d="M192.48 174.238L244.993 164.061L202.1 149.388L192.48 174.238Z" fill="#25D28C"/>
<path d="M250.039 162.247L188.774 184.336L193.348 189.149L250.039 168.953L306.652 189.149L311.304 184.336L250.039 162.247Z" fill="#25D28C"/>
<path d="M311.304 184.336L297.9 149.388L255.007 164.061L311.304 184.336Z" fill="#25D28C"/>
<path opacity="0.45" d="M307.52 174.238L255.007 164.061L297.9 149.388L307.52 174.238Z" fill="#25D28C"/>
<path d="M250.039 168.953C252.347 168.953 254.218 167.081 254.218 164.771C254.218 162.462 252.347 160.59 250.039 160.59C247.731 160.59 245.86 162.462 245.86 164.771C245.86 167.081 247.731 168.953 250.039 168.953Z" fill="white" fill-opacity="0.5"/>
<path d="M324.472 67.1846L250.04 104.263L175.607 67.1846C172.217 71.6813 144.935 117.201 144.935 117.201C145.25 117.201 145.487 117.28 145.802 117.28C214.243 124.143 233.245 145.68 239.553 150.887C245.861 156.173 250.118 155.62 250.118 155.62C250.118 155.62 254.376 156.173 260.684 150.887C266.992 145.68 285.994 124.143 354.435 117.28C354.75 117.28 354.987 117.201 355.302 117.201C355.144 117.201 327.784 71.7602 324.472 67.1846Z" fill="#F5B304"/>
<path d="M355.144 117.201C354.829 117.201 354.592 117.28 354.277 117.28C285.837 124.143 266.834 145.68 260.526 150.887C254.218 156.173 249.961 155.62 249.961 155.62C249.961 155.62 245.703 156.173 239.395 150.887C233.087 145.68 214.085 124.143 145.645 117.28C145.329 117.28 145.093 117.201 144.777 117.201C144.225 118.069 144.777 118.7 144.777 118.7C213.927 125.405 232.299 147.021 238.607 152.307C244.914 157.514 249.882 157.119 249.882 157.119C249.882 157.119 254.849 157.514 261.157 152.307C267.465 147.1 285.837 125.484 354.986 118.7C355.144 118.7 355.696 118.069 355.144 117.201Z" fill="#25D28C"/>
<path d="M321.634 62.8456C283.55 53.6944 249.961 85.0137 249.961 85.0137C249.961 85.0137 216.371 53.6944 178.288 62.8456C178.288 62.8456 167.486 79.4125 152.583 107.576C152.583 107.576 227.568 116.017 249.961 147.495C272.354 116.017 347.338 107.576 347.338 107.576C332.436 79.4125 321.634 62.8456 321.634 62.8456Z" fill="#F5EFFB"/>
<path d="M347.338 107.576C347.338 107.576 272.354 116.017 249.961 147.495C227.647 116.017 152.662 107.576 152.662 107.576C152.662 107.576 152.662 110.101 148.483 115.071C148.483 115.071 216.529 119.962 241.287 148.205C247.122 154.831 249.961 154.042 249.961 154.042C249.961 154.042 252.878 154.831 258.634 148.205C283.313 119.962 351.438 115.071 351.438 115.071C347.338 110.022 347.338 107.576 347.338 107.576Z" fill="#DFCBF4"/>
<path d="M317.376 66.159C317.376 66.159 288.912 58.9011 249.961 89.116C211.089 58.98 182.546 66.159 182.546 66.159L163.307 103.553C221.812 107.576 249.961 137.16 249.961 137.16C249.961 137.16 278.11 107.576 336.615 103.553L317.376 66.159ZM250.04 133.61C250.04 133.61 223.704 106.63 167.88 101.344L184.044 67.7368C184.044 67.7368 212.035 62.2934 250.04 90.8516C288.044 62.2934 316.035 67.7368 316.035 67.7368L332.199 101.344C276.375 106.63 250.04 133.61 250.04 133.61Z" fill="#25D28C"/>
<path opacity="0.2" d="M257.215 117.275C267.728 109.517 300.581 92.3505 322.659 94.7172" stroke="#25D28C" stroke-width="3" stroke-linecap="round"/>
<path opacity="0.2" d="M257.215 95.5061C266.545 88.1966 290.804 73.875 313.197 75.0644" stroke="#25D28C" stroke-width="3" stroke-linecap="round"/>
<path opacity="0.2" d="M257.215 106.551C267.334 98.6789 293.643 83.2557 317.928 84.5365" stroke="#25D28C" stroke-width="3" stroke-linecap="round"/>
<path opacity="0.2" d="M243.811 117.275C233.297 109.517 200.444 92.3505 178.367 94.7172" stroke="#25D28C" stroke-width="3" stroke-linecap="round"/>
<path opacity="0.2" d="M243.811 95.5061C234.48 88.1966 210.221 73.875 187.828 75.0644" stroke="#25D28C" stroke-width="3" stroke-linecap="round"/>
<path opacity="0.2" d="M243.811 106.551C233.692 98.6789 207.383 83.2557 183.097 84.5365" stroke="#25D28C" stroke-width="3" stroke-linecap="round"/>
<path d="M250.04 85.0137C250.04 85.0137 250.828 82.2525 252.326 83.0414C252.326 83.0414 251.38 127.772 252.957 145.207C253.351 149.546 257.136 155.462 258.634 157.671H256.663L256.111 159.486C256.111 159.486 250.276 149.625 250.04 145.759C248.857 128.403 249.488 89.1949 250.04 85.0137Z" fill="#54DAF5"/>
<defs>
<linearGradient id="paint0_linear_2132_143" x1="7.99999" y1="-14" x2="564.5" y2="250" gradientUnits="userSpaceOnUse">
<stop stop-color="#25D28C"/>
<stop offset="1" stop-color="#0B721E"/>
</linearGradient>
</defs>
</svg>
