<svg width="350" height="215" viewBox="0 0 350 215" fill="none" xmlns="http://www.w3.org/2000/svg">
<path opacity="0.25" d="M175.06 214.078C258.49 214.078 326.123 198.329 326.123 178.903C326.123 159.477 258.49 143.728 175.06 143.728C91.6304 143.728 23.9973 159.477 23.9973 178.903C23.9973 198.329 91.6304 214.078 175.06 214.078Z" fill="#042030"/>
<path d="M293.367 9.15234L175.06 49.6092L56.6335 9.15234L0 91.5066L175.06 151.412L350 91.5066L293.367 9.15234Z" fill="#25D28C"/>
<path opacity="0.45" d="M20.6376 88.1452L165.821 143.728L115.907 94.2678C115.907 94.2678 33.9561 74.4595 20.6376 88.1452Z" fill="#102D21"/>
<path opacity="0.45" d="M329.482 88.1452L184.299 143.728L234.213 94.2678C234.093 94.2678 316.044 74.4595 329.482 88.1452Z" fill="#102D21"/>
<path d="M175.06 151.412L0 91.5067V99.3099L175.06 159.215L350 99.3099V91.5067L175.06 151.412Z" fill="#25D28C"/>
<path d="M81.8307 187.427L102.108 134.244L167.381 156.574L81.8307 187.427Z" fill="#25D28C"/>
<path opacity="0.45" d="M87.47 172.06L167.381 156.574L102.108 134.244L87.47 172.06Z" fill="#25D28C"/>
<path d="M175.06 153.813L81.8307 187.427L88.7899 194.75L175.06 164.017L261.21 194.75L268.289 187.427L175.06 153.813Z" fill="#25D28C"/>
<path d="M268.289 187.427L247.892 134.244L182.619 156.574L268.289 187.427Z" fill="#25D28C"/>
<path opacity="0.45" d="M262.53 172.06L182.619 156.574L247.892 134.244L262.53 172.06Z" fill="#25D28C"/>
<path d="M175.06 164.017C178.572 164.017 181.419 161.168 181.419 157.654C181.419 154.14 178.572 151.292 175.06 151.292C171.548 151.292 168.701 154.14 168.701 157.654C168.701 161.168 171.548 164.017 175.06 164.017Z" fill="white" fill-opacity="0.5"/>
<path d="M288.327 9.15234L175.06 65.5758L61.793 9.15234C56.6335 15.9952 15.1183 85.264 15.1183 85.264C15.5982 85.264 15.9582 85.3841 16.4381 85.3841C120.586 95.8284 149.503 128.602 159.102 136.525C168.701 144.569 175.18 143.728 175.18 143.728C175.18 143.728 181.659 144.569 191.258 136.525C200.857 128.602 229.774 95.8284 333.922 85.3841C334.402 85.3841 334.762 85.264 335.242 85.264C335.002 85.264 293.367 16.1152 288.327 9.15234Z" fill="#F5B304"/>
<path d="M335.002 85.264C334.522 85.264 334.162 85.3841 333.682 85.3841C229.534 95.8284 200.617 128.602 191.018 136.525C181.419 144.569 174.94 143.728 174.94 143.728C174.94 143.728 168.461 144.569 158.862 136.525C149.263 128.602 120.346 95.8284 16.1982 85.3841C15.7182 85.3841 15.3583 85.264 14.8783 85.264C14.0384 86.5846 14.8783 87.545 14.8783 87.545C120.106 97.7492 148.063 130.643 157.662 138.686C167.261 146.61 174.82 146.009 174.82 146.009C174.82 146.009 182.379 146.61 191.978 138.686C201.577 130.763 229.534 97.8693 334.762 87.545C335.002 87.545 335.842 86.5846 335.002 85.264Z" fill="#25D28C"/>
<path d="M284.008 2.54959C226.054 -11.3762 174.94 36.2836 174.94 36.2836C174.94 36.2836 123.826 -11.3762 65.8725 2.54959C65.8725 2.54959 49.4344 27.7601 26.757 70.6179C26.757 70.6179 140.864 83.4633 174.94 131.363C209.016 83.4633 323.123 70.6179 323.123 70.6179C300.446 27.7601 284.008 2.54959 284.008 2.54959Z" fill="#F5EFFB"/>
<path d="M323.123 70.6179C323.123 70.6179 209.016 83.4633 174.94 131.363C140.984 83.4633 26.8769 70.6179 26.8769 70.6179C26.8769 70.6179 26.8769 74.4595 20.5177 82.0227C20.5177 82.0227 124.066 89.4658 161.742 132.444C170.621 142.528 174.94 141.327 174.94 141.327C174.94 141.327 179.38 142.528 188.139 132.444C225.694 89.4658 329.362 82.0227 329.362 82.0227C323.123 74.3395 323.123 70.6179 323.123 70.6179Z" fill="#DFCBF4"/>
<path d="M277.528 7.5917C277.528 7.5917 234.213 -3.45291 174.94 42.5262C115.787 -3.33287 72.3518 7.5917 72.3518 7.5917L43.0751 64.4954C132.105 70.618 174.94 115.637 174.94 115.637C174.94 115.637 217.775 70.618 306.805 64.4954L277.528 7.5917ZM175.06 110.234C175.06 110.234 134.985 69.1773 50.0343 61.134L74.6315 9.9927C74.6315 9.9927 117.227 1.70925 175.06 45.1674C232.893 1.70925 275.489 9.9927 275.489 9.9927L300.086 61.134C215.135 69.1773 175.06 110.234 175.06 110.234Z" fill="#25D28C"/>
<path opacity="0.2" d="M185.979 85.3766C201.977 73.5717 251.971 47.4483 285.567 51.0498" stroke="#25D28C" stroke-width="3" stroke-linecap="round"/>
<path opacity="0.2" d="M185.979 52.2503C200.177 41.1272 237.093 19.3335 271.169 21.1434" stroke="#25D28C" stroke-width="3" stroke-linecap="round"/>
<path opacity="0.2" d="M185.979 69.0573C201.377 57.0786 241.412 33.6085 278.368 35.5576" stroke="#25D28C" stroke-width="3" stroke-linecap="round"/>
<path opacity="0.2" d="M165.581 85.3766C149.583 73.5717 99.5886 47.4483 65.9925 51.0498" stroke="#25D28C" stroke-width="3" stroke-linecap="round"/>
<path opacity="0.2" d="M165.581 52.2503C151.383 41.1272 114.467 19.3335 80.3908 21.1434" stroke="#25D28C" stroke-width="3" stroke-linecap="round"/>
<path opacity="0.2" d="M165.581 69.0573C150.183 57.0786 110.147 33.6085 73.1917 35.5576" stroke="#25D28C" stroke-width="3" stroke-linecap="round"/>
<path d="M175.06 36.2836C175.06 36.2836 176.26 32.0819 178.54 33.2824C178.54 33.2824 177.1 101.351 179.5 127.882C180.099 134.485 185.859 143.488 188.139 146.85H185.139L184.299 149.611C184.299 149.611 175.42 134.605 175.06 128.722C173.26 102.311 174.22 42.6463 175.06 36.2836Z" fill="#54DAF5"/>
</svg>
